<svg xmlns="http://www.w3.org/2000/svg" viewBox="0 0 768.41 641.51"><defs><style>.cls-1{fill:none;}</style></defs><g id="Layer_2" data-name="Layer 2"><g id="Capa_1" data-name="Capa 1"><path d="M621.52,489.18l-1.3-.49a580.62,580.62,0,0,0-229.65-37.5c-76,2.93-151.47,20.31-224.43,51.65l-1.29.56,0,0-2.5,18,23.93,59.83s201.11-99.36,398.24-21.37l12.07-5.08-.09,0,.12,0Zm-26.51,62c-128.86-48.51-267.45-44-401,13l-25.49-59.33c72.25-30.86,147-48,222.15-50.88a577.76,577.76,0,0,1,227.25,36.83Z"/><path d="M202,535.16a14.73,14.73,0,0,1-5.9-7.38,14.54,14.54,0,0,1-.42-9.47,9.31,9.31,0,0,1,14.43-5.41,14.52,14.52,0,0,1,5.88,7.42,14.79,14.79,0,0,1,.44,9.43A9.37,9.37,0,0,1,202,535.16ZM200.81,526c1.53,4.08,5.25,6.63,8.1,5.56s4-5.45,2.47-9.53-5.27-6.69-8.15-5.61S199.25,521.88,200.81,526Z"/><path d="M237.32,519.67c.93,5.62-5,9.55-10,10.62a4.45,4.45,0,0,1-.55.33c-1.55.58-3.47,1.17-4.29-.78-.21-.44-.66-2-1.32-4.15s-1.4-4.81-2.2-7.35c-1.05-3.32-2-6.78-3.45-10.06a1.11,1.11,0,0,1,.68-1.5,7.7,7.7,0,0,1,3-1.06c4.23-2.08,10.74-2.29,13.12,1.54,1.08,1.72,1.55,3.93.32,7.06A7,7,0,0,1,237.32,519.67Zm-15.7-9.5c.69,1.67,1.26,3.3,1.93,5C230,513.41,228.12,507.06,221.62,510.17Zm3.78,10.29c.46,1.41.91,2.79,1.38,4.2C234.18,523.07,232.17,516.27,225.4,520.46Z"/><path d="M256,513.14c.32,4.33-1.45,8.51-5.53,10a8,8,0,0,1-9.58-3.86,15.6,15.6,0,0,1-1.72-9.76c.34-1.79,2.78-2.07,4.07-1.47a1.56,1.56,0,0,1,1,1.55,26.84,26.84,0,0,0,1,5.9c1.65,4.59,5.72,2.72,5.49-1.64-.29-5.32-2.55-9.76-4.66-14a1.58,1.58,0,0,1,.05-2.18,10.13,10.13,0,0,1,2-1.16,1.62,1.62,0,0,1,2.06.66C252.69,501.37,255.6,507.68,256,513.14Z"/><path d="M275.6,512.5c.34,1.59.63,3.55-.18,4a8.54,8.54,0,0,1-1.9.38,53.15,53.15,0,0,0-8.17,2.1c-1.37.5-3,.94-4.05-.63a22.91,22.91,0,0,1-1.45-4.41c-1.51-5.85-3.11-11.94-4.18-17.9-.29-1.11.69-1.75,1.79-2,3.57-1.09,8.1-2.37,11.59-3.23a.94.94,0,0,1,.7.39c.78.8,1.64,4.29.67,5.08-.63.33-6.39,1.39-8.67,1.94l1.24,5.39,6.22-1.64c1.73-.19,2.37,4.35,1.52,4.93a57.14,57.14,0,0,1-6.58,1.48c.41,1.75.88,3.41,1.38,5.1a76.54,76.54,0,0,1,8.17-2.35C275,510.76,275.31,511.08,275.6,512.5Z"/><path d="M290.48,491.47a36.2,36.2,0,0,1-4.9,1.21c1.6,6.19,3.14,12.42,4.54,18.66a1.63,1.63,0,0,1-1.33,1.79c-1.55.52-3.44,1.09-4.15-.66-.38-.91-1.32-5.87-2.26-10.68-.66-3.29-1.31-6.47-1.65-8.16l-5.19,1s-.65.25-1-.91-1.16-3.57-.46-3.76l15-3.89s.95-.18,1.46,1.34S291.76,490.87,290.48,491.47Z"/><path d="M300.94,506.49a14.73,14.73,0,0,1-4.54-8.29,14.54,14.54,0,0,1,1.22-9.4A9.31,9.31,0,0,1,312.76,486a14.5,14.5,0,0,1,4.51,8.32,14.7,14.7,0,0,1-1.19,9.37,9.36,9.36,0,0,1-15.14,2.84Zm.38-9.21c.8,4.27,4,7.43,7,6.87s4.88-4.68,4.08-8.95-4-7.51-7.06-6.94S300.5,492.93,301.32,497.28Z"/><path d="M336.9,493.2a7.25,7.25,0,0,1-.09,9.2,10,10,0,0,1-6.57,3c-3.58.36-7.4-1.12-8.74-4.73a4.93,4.93,0,0,1-.33-1.7c.18-1.88,2.22-3.37,3.09-3.64a.84.84,0,0,1,1.18.66c.42,1.83,1.92,3.91,3.95,4.19a2.8,2.8,0,0,0,1.51-.19,2.26,2.26,0,0,0,1.52-2.43,3.65,3.65,0,0,0-1.71-2.11c-3.43-2.11-8.23-2.65-10.34-6.52-2.56-5.17,2.44-9.07,7.06-9.51,3.92-.38,8,1.34,9.29,4.65.68,2-1.83,4.11-3.16,4.07a1.71,1.71,0,0,1-1.15-.91c-3.07-5.1-7-2.89-6.43-.26a2.68,2.68,0,0,0,1.33,1.44C330.35,490.27,334.56,490.44,336.9,493.2Z"/><path d="M370.28,475.81c.7,8.26.74,9.37.75,10.62,0,6.07-1.54,11.45-7.6,14.51-1.37.55-5,1.69-6.42,0-1-1.19-1.34-5.11.37-5,2.59.24,7.24-.82,7.92-4.35-8.91,4.09-12.62-4.82-12.08-14.28a1.24,1.24,0,0,1,1.29-1.33c1.25-.05,3.73-.18,3.79.79,0,.35,0,.66,0,1,0,2.25.08,7.52,2.64,9,1.95,1.11,4.59.06,5.07-4.08.25-2.17-.44-4.71-.59-6.36a1.14,1.14,0,0,1,1-1.41C367.69,474.81,370.12,474.47,370.28,475.81Z"/><path d="M396.44,498.55a12.53,12.53,0,0,1-5.07,1.08c-1.32-.06-2.72-.42-2.94-1.94-.05-.48-.11-2.2-.16-4.42-.21-6-.25-12.12-.51-18.51,0,0-.17-1,1.1-1.18,1-.17,2.68-.4,3.42,0C406.49,473.55,409,493,396.44,498.55ZM393,478.69c.37,4.9.62,9.87.83,14.8C401,490.48,401.5,480.19,393,478.69Z"/><path d="M423.48,495.24c-.07,1.62-.27,3.59-1.17,3.83a8.77,8.77,0,0,1-1.94-.1,52.56,52.56,0,0,0-8.42,0c-1.46.14-3.11.17-3.77-1.62a23.3,23.3,0,0,1-.31-4.63c0-6.05,0-12.33.41-18.38,0-1.14,1.11-1.52,2.25-1.52,3.73-.17,8.43-.27,12-.24a1,1,0,0,1,.59.56c.55,1,.51,4.55-.63,5.07-.69.18-6.52-.24-8.87-.27l-.14,5.52,6.42,0c1.73.24,1.21,4.8.25,5.14a57,57,0,0,1-6.74-.2c0,1.79,0,3.52.07,5.28a76.36,76.36,0,0,1,8.5-.24C423.34,493.41,423.55,493.79,423.48,495.24Z"/><path d="M435.37,479.25c-3.27,2.68-4.33,8.93-2.45,12.46a3.34,3.34,0,0,0,5.39.75c1.22-1.13,1.86-1.59,2.76-1.6,2.62.1,3.35,1.82,2.55,3.9-1.94,5-10.16,5.61-13.53,2.27-2.5-2.47-3.63-6.42-3.5-10.15a17.3,17.3,0,0,1,5.14-11.15c2.69-2.6,7.57-3.7,10.19-.67a8.66,8.66,0,0,1,1.85,4.12,3.76,3.76,0,0,1-.26,2.48c-1.1,1.79-4.78,1.34-4.59-1C439.08,478,436.8,478.06,435.37,479.25Z"/><path d="M449.63,495.88a14.76,14.76,0,0,1-2.22-9.19,14.49,14.49,0,0,1,3.64-8.75,9.32,9.32,0,0,1,15.36,1.21,15.42,15.42,0,0,1-1.42,18,9.36,9.36,0,0,1-15.36-1.22Zm2.77-8.79c-.34,4.34,2,8.23,5,8.47s5.94-3.24,6.29-7.58-1.94-8.3-5-8.54S452.75,482.68,452.4,487.09Z"/><path d="M481.09,494.24a13.6,13.6,0,0,0,5.29,4.8c2,1.08-.47,5.51-2.63,4.65a7.8,7.8,0,0,1-1-.39c-2.58-1.33-4.46-3.9-6.21-6.66,0-.06,0-.07-.08-.15-.17,1.38-.38,2.78-.56,4.18a1.78,1.78,0,0,1-1.91,1.4c-1.59-.05-3.6-.16-3.58-2.32,0-1,.9-6.68,1.79-12.14S473.83,477,473.83,477s-.05-1.09,1.23-1a11,11,0,0,1,2.44.27c.86.07,1.72.18,2.64.32,4.1.65,8.74,3.35,9.1,8.09C489.61,489.8,485.36,493,481.09,494.24Zm-2.88-12.15c-.29,2.61-.58,5.25-.86,7.83C484.33,490.33,486.49,482.41,478.21,482.09Z"/><path d="M510.9,492.15a57.42,57.42,0,0,1-1.54,11.9c-.55,2.22-.74,2.71-2.41,2.89a3.49,3.49,0,0,1-2.35-.64c-.6-.56-.94-1.67-.63-3.72,0-.1,0-.2,0-.34a84.1,84.1,0,0,0-8.67-1.73c-.21.84-1,4.18-2.3,4.09a6.62,6.62,0,0,1-2.27-.45,1.72,1.72,0,0,1-1.09-2.07c.24-1.4.58-3.27,1.08-5.36,1.23-5.25,3.63-14,9.45-16.45a7,7,0,0,1,7,1.11C510.35,484,511,488.14,510.9,492.15Zm-6,4.5c1.32-6.43-.06-10.52-2.16-10.91-1.84-.34-4.67,3.18-6.44,9.75A72,72,0,0,1,504.93,496.65Z"/><path d="M523.65,490c-3.69,2.07-5.81,8.05-4.58,11.85a3.35,3.35,0,0,0,5.19,1.67c1.4-.9,2.1-1.25,3-1.09,2.57.55,3,2.37,1.84,4.28-2.78,4.56-11,3.76-13.72-.11-2-2.87-2.47-7-1.69-10.61a17.3,17.3,0,0,1,7-10.09c3.1-2.09,8.09-2.33,10.15,1.11a8.73,8.73,0,0,1,1.11,4.38,3.74,3.74,0,0,1-.69,2.39c-1.39,1.58-4.94.5-4.36-1.74C527.52,489.45,525.27,489.07,523.65,490Z"/><path d="M536.73,511.8a1.75,1.75,0,0,1-2,1.17c-1.62-.22-3.6-.53-3.37-2.64s6.21-22.27,6.21-22.27a1,1,0,0,1,1.33-.81c1.25.27,3.68.69,3.44,1.8Z"/><path d="M543.15,511a14.78,14.78,0,0,1-.36-9.45,14.55,14.55,0,0,1,5.29-7.86,9.32,9.32,0,0,1,14.82,4.22,14.45,14.45,0,0,1,.32,9.46,14.73,14.73,0,0,1-5.25,7.85A9.36,9.36,0,0,1,543.15,511Zm4.46-8.07c-1.19,4.18.29,8.45,3.21,9.28s6.46-2,7.65-6.19-.27-8.52-3.22-9.36S548.82,498.69,547.61,503Zm14.53-16.48c.15.62-.19.66-.19.66-2.59,1-4.35,1.92-7,2.92-.78.1-1.1-.82-1.34-1.6s.29-1,.29-1c2.7-1,4.61-1.66,7.31-2.58C561.57,484.69,561.92,485.87,562.14,486.47Z"/><path d="M581.38,525.87s-.24,1-1.5.65-3.86-.77-4.33-2.5a39.29,39.29,0,0,1-1-4.87c-.59-3.93-1.26-7.85-1.87-12l-4.46,13.78a1.78,1.78,0,0,1-2.08,1.07c-1.6-.32-3.59-.82-3.18-2.87s7.71-21.8,7.71-21.8a1.07,1.07,0,0,1,1.45-.71c.74.19,3.86,1,4,1.74,1.22,5.61,2.37,11.22,3.39,16.87l4.55-12.76a1.85,1.85,0,0,1,2.17-1c1.59.39,3.53.91,3.07,3S581.38,525.87,581.38,525.87Z"/><path d="M611.28,494.19c.44,1.15-13.07,35.83-13.07,35.83s5-24.53,7.56-34.48c.23-.93-9.79-6.3-9.6-7C596.48,487.47,610.84,493,611.28,494.19Z"/><path d="M375.57,275.65c-3.5-8.78-7-17.55-10.42-26.17-12.87-32.41-25-63-37.3-91.95l-.77-1.8-49.85,15.58-.09,1.48.05-1.58-9.43,15.52L250.33,345.52l50.94-12.34,8.35-12.74h.07v-.1l0,0h0v-1.65c0-13.48-.12-32.51-.19-45l19.61-2.9,17.19,55.57,34-3.77,9.17-12.76Zm-21.33,33.43L336,258.59l-30.84,5.07v1.85c.06,10,.21,34.42.24,51.39L269,324.35c4.72-50.62,9.46-103.59,12.37-149.8L324.63,161c12,28.35,23.91,58.34,36.51,90.05,7.18,18.07,14.59,36.73,22,54.93Z"/><path d="M311,197.14l-3.61-6.92-.47,7.78c-.94,15.41-1.94,30.69-3,45.42l-.2,2.82,29.5-5.81-1.3-2.55C325,224.17,317.92,210.47,311,197.14Zm-2.53,43.76c.62-9,1.23-18.17,1.82-27.45l10.46,25Z"/><path d="M505.42,124,454,134.55l-.44,1,.17-1-13.91,9.31L423,178.49c-6.57-13.28-13.15-26.4-19.66-39.16l-.75-1.47L353.27,148l.06.1-8.45,16.72,56.3,88.31,8.17,67.46,47-1.71,8.81-9.82h.15l-9.16-70.29Zm-45,180.74-39,.07c-1.13-10.42-2.12-20.75-3.08-30.76-1-10.61-2.07-21.58-3.29-32.63l0-.46-.22-.39C396.5,209,378.2,178.87,360.31,151l39.92-8.2c8.84,17.35,17.81,35.35,26.67,53.53l2,4.13,28.15-62.07,41.11-8.45L451.71,238.14Z"/><path d="M647,109.29l-10.21,7.12-38.87,39.47,9.07,8.86,5.22,1.08h0l54.44-36.33Zm-40.68,46c13.77-13.88,35.86-37.08,40.7-42.17l15.48,15.9-49.71,33.17A60.94,60.94,0,0,0,606.34,155.32Z"/><path d="M216.13,56.09l-22.49,17v7l39.52,46.06,11.28-6.93.95-4.52Zm18.1,63.08c-12-15.39-32.31-40.2-36.76-45.64l17.71-13.37,26.71,53.46A61.82,61.82,0,0,0,234.23,119.17Z"/><path d="M62.29,382.07c-17.07-7.31-47.8-21.17-48.11-21.31l-1.34-.6-6.75,7.57L0,383.81l53,11.74,7.42-2.86.25-1.39A32.23,32.23,0,0,1,63,383.85l.57-1.24Zm-4,7.36L9.83,377.36l4.59-13.56c6,2.69,30.41,13.67,45.59,20.2A34.55,34.55,0,0,0,58.3,389.43Z"/><path d="M768.41,440.83l-1.47-.32c-.28-.06-28-6-43.21-9.7l-1.51-.37-.05.3-3.92,4.81-2.47,8.18,41.39,18.77,5.91-.34,0,0,0,0ZM761.11,458l-38.17-18a48.18,48.18,0,0,0,1.61-6c13.35,3.19,34.56,7.8,40.3,9Z"/><path d="M635.25,333.21l-4.54-.71-8,9.28-15.32,87.07,4.84.73-4.43,2.82s-13.65,17,4.57,28l11-1.08c.36,0,.71-.05,1.07-.1h.09a14.06,14.06,0,0,0,6.43-2.8,17.52,17.52,0,0,0,6.52-10.38,18.16,18.16,0,0,0-1.34-12.43,16.15,16.15,0,0,0-2.13-3.25l4.24-1.49,1.06-4.52c6.53-28,13.23-55.53,19.91-82l.85-3.73S641.93,334.25,635.25,333.21Zm-2,109.34c0,.4-.07.81-.13,1.22s-.14.82-.23,1.23a14.49,14.49,0,0,1-1.52,3.94,12.12,12.12,0,0,1-3.25,3.73,11.14,11.14,0,0,1-1,.7l-.17.1a10.22,10.22,0,0,1-1,.52l-.09,0a7.69,7.69,0,0,1-2.31.58h0a8.53,8.53,0,0,1-1,0,8.78,8.78,0,0,1-1.94-.3,9.41,9.41,0,0,1-6.07-5.24,13.52,13.52,0,0,1-1.15-9.06,12.54,12.54,0,0,1,4.63-7.74l.3-.21h0a9,9,0,0,1,5.64-1.87,8.57,8.57,0,0,1,1.8.25,8.84,8.84,0,0,1,3.41,1.63h0a9.4,9.4,0,0,1,1.55,1.54l0,.05q.32.41.6.84l.09.13a12,12,0,0,1,.59,1.06q.27.54.48,1.08a13,13,0,0,1,.89,4.55C633.31,441.75,633.3,442.15,633.27,442.55Zm1.47-19.25q-7.68-1.67-15.37-3.15,6.43-34.71,15.16-82.27a170.77,170.77,0,0,1,20,3.91C647.54,369.44,641.06,396.24,634.74,423.3Z"/><path class="cls-1" d="M531.85,434.5q10.77,2,21.47,4.41c3.68-10.75,7.48-22,11.31-32.83q7.93,1.55,15.83,3.28C579.8,421,579,433,578.2,444.75q9,2.36,18,4.95c3.17-37.21,5.48-74.33,6.88-110.66-12.79-2.86-29.6-5.32-30.14-5.4C572.9,333.65,544.29,401.78,531.85,434.5Zm52-41.14q-7.14-1.46-14.29-2.77,6.53-15.06,13.36-30.23Q583.52,376.77,583.82,393.36Z"/><polygon class="cls-1" points="579.9 388.39 579.61 378.14 575.2 387.29 579.9 388.39"/><path d="M583.82,393.36q-.3-16.59-.93-33-6.82,15.17-13.36,30.23Q576.68,391.9,583.82,393.36Zm-3.92-5-4.7-1.1,4.41-9.15Z"/><path d="M588.32,331.52c-5.43-1-18.1-3.13-18.1-3.13l-10.7,8-25.17,64a44.79,44.79,0,0,1-.14,7.07c-.09.88-.22,1.72-.36,2.55l-.09.5c-.15.78-.32,1.53-.52,2.27l-.15.52c-.19.64-.4,1.27-.63,1.88,0,.13-.09.26-.14.38-.25.63-.53,1.23-.82,1.82-.1.21-.2.41-.31.6-.28.53-.57,1-.89,1.53h0a19.9,19.9,0,0,1-5.75,5.81L517,444.56l32.44,6.24,6.85-7.22,1.27-3.73c2.78-8.14,5.64-16.36,8.51-24.53l5.61,1.41-5,38.1,25.07,6.7,8.35-6.42.46-5.35c3.15-36.93,5.46-74.12,6.87-110.55l0-3.77S593.13,332.41,588.32,331.52Zm7.84,118.18q-9-2.59-18-4.95c.82-11.73,1.6-23.74,2.26-35.39q-7.9-1.73-15.83-3.28c-3.83,10.81-7.63,22.08-11.31,32.83q-10.71-2.39-21.47-4.41c12.44-32.72,41-100.85,41-100.86.54.08,17.35,2.54,30.14,5.4C601.64,375.37,599.33,412.49,596.16,449.7Z"/><path class="cls-1" d="M503,396c-.22,3.71-.43,7.42-.66,11.15a10.3,10.3,0,0,0,4.11-1.6,5.21,5.21,0,0,0,2-3.82C507.53,398.15,504,396.4,503,396Z"/><path class="cls-1" d="M505.94,351l-1.12,10.78a12.79,12.79,0,0,0,4.54-1.89,4.57,4.57,0,0,0,1.86-2.65C510.53,353.44,507.12,351.55,505.94,351Z"/><path class="cls-1" d="M524.86,380.06l-1.9-1.5,2-1.37c5.07-3.49,11.75-9.72,11.18-23.5a27.54,27.54,0,0,0-2.29-10.24,22.15,22.15,0,0,0-2.29-4,21.79,21.79,0,0,0-1.87-2.26c-.33-.35-.67-.69-1-1a26.16,26.16,0,0,0-3.34-2.64,27.16,27.16,0,0,0-2.42-1.45c-6.18-3.33-13.36-4.51-18.79-4.88l-1.41-.07a96.56,96.56,0,0,0-15.73.7,2.07,2.07,0,0,0-.46.11,1.61,1.61,0,0,0-.33.12,2.59,2.59,0,0,0-1.49,2.3c-1.89,30.83-3.89,62.25-5.94,93.35a2.23,2.23,0,0,0,2.09,2.69c8.7,1.18,14,2,16.37,2.4l1.66.31.49.07c1.37.19,2.69.32,4,.41,13,.87,22-2.6,26.9-10.09h0c.32-.49.61-1,.89-1.53.11-.19.21-.39.31-.6.29-.59.57-1.19.82-1.82,0-.12.1-.25.14-.38.23-.61.44-1.24.63-1.88l.15-.52c.2-.74.37-1.49.52-2.27l.09-.5c.14-.83.27-1.67.36-2.55C535.88,390.75,528.22,382.73,524.86,380.06ZM512,401.78c-.39,3.19-1.58,5.39-3.63,6.73a13.84,13.84,0,0,1-6.69,2.28l-.64,0-.53,0-.51,0h0l-1.5.09.13-2c.36-6,.72-12.07,1.06-18l.13-2.36,1.38.48.59.2.26.09.86.3.28.11c.18.06.35.15.52.22a17.37,17.37,0,0,1,5.14,3.21c.33.3.67.6,1,.92a8,8,0,0,1,1.17,1.57,8.79,8.79,0,0,1,.43.87A10.07,10.07,0,0,1,512,401.78Zm3.08-45.72a12.31,12.31,0,0,1-.38,1.92,8.23,8.23,0,0,1-3.4,4.9,16.32,16.32,0,0,1-5.52,2.33c-.53.12-1.06.22-1.6.29l-1,.12-.69.09-1.68.2,2.31-22.28,3.35,1a15.2,15.2,0,0,1,6.52,4C514.77,350.39,515.48,352.91,515.09,356.06Z"/><path d="M506.47,344.6l-3.35-1-2.31,22.28,1.68-.2.69-.09,1-.12c.54-.07,1.07-.17,1.6-.29a16.32,16.32,0,0,0,5.52-2.33,8.23,8.23,0,0,0,3.4-4.9,12.31,12.31,0,0,0,.38-1.92c.39-3.15-.32-5.67-2.1-7.5A15.2,15.2,0,0,0,506.47,344.6Zm2.89,15.29a12.79,12.79,0,0,1-4.54,1.89L505.94,351c1.18.55,4.59,2.44,5.28,6.24A4.57,4.57,0,0,1,509.36,359.89Z"/><path d="M539.7,353.54c-1-24.87-25-29.19-35.36-29.86l-1.45-.08a101,101,0,0,0-16.37.73,6.12,6.12,0,0,0-3.82,2l-10,9.56c-.72,29.63-1.81,60.2-2.64,89.79l-.82-.07-.28,9.86c-.09,1.09,2,2.54,3.1,2.67,7.1.89,26.91,3.62,34,4.58,3.08.41,23.07-2.41,28.73-24l-.08,0a31.69,31.69,0,0,0,3-10.91c1.6-16-4.73-25-8.93-29C533,375.58,540.32,368.34,539.7,353.54Zm-5.49,53.95c-.09.88-.22,1.72-.36,2.55l-.09.5c-.15.78-.32,1.53-.52,2.27l-.15.52c-.19.64-.4,1.27-.63,1.88,0,.13-.09.26-.14.38-.25.63-.53,1.23-.82,1.82-.1.21-.2.41-.31.6-.28.53-.57,1-.89,1.53h0c-4.86,7.49-13.95,11-26.9,10.09-1.32-.09-2.64-.22-4-.41l-.49-.07-1.66-.31c-2.38-.39-7.67-1.22-16.37-2.4a2.23,2.23,0,0,1-2.09-2.69c2.05-31.1,4.05-62.52,5.94-93.35a2.59,2.59,0,0,1,1.49-2.3,1.61,1.61,0,0,1,.33-.12,2.07,2.07,0,0,1,.46-.11,96.56,96.56,0,0,1,15.73-.7l1.41.07c5.43.37,12.61,1.55,18.79,4.88a27.16,27.16,0,0,1,2.42,1.45,26.16,26.16,0,0,1,3.34,2.64c.34.33.68.67,1,1a21.79,21.79,0,0,1,1.87,2.26,22.15,22.15,0,0,1,2.29,4,27.54,27.54,0,0,1,2.29,10.24c.57,13.78-6.11,20-11.18,23.5l-2,1.37,1.9,1.5C528.22,382.73,535.88,390.75,534.21,407.49Z"/><path d="M511,395.69a8,8,0,0,0-1.17-1.57c-.31-.32-.65-.62-1-.92a17.37,17.37,0,0,0-5.14-3.21c-.17-.07-.34-.16-.52-.22l-.28-.11-.86-.3-.26-.09-.59-.2-1.38-.48L499.7,391c-.34,6-.7,12-1.06,18l-.13,2,1.5-.09h0l.51,0,.53,0,.64,0a13.84,13.84,0,0,0,6.69-2.28c2.05-1.34,3.24-3.54,3.63-6.73a10.07,10.07,0,0,0-.57-5.22A8.79,8.79,0,0,0,511,395.69Zm-4.58,9.83a10.3,10.3,0,0,1-4.11,1.6c.23-3.73.44-7.44.66-11.15,1,.43,4.55,2.18,5.44,5.73A5.21,5.21,0,0,1,506.43,405.52Z"/><path class="cls-1" d="M436.25,360.41c-6.54-9.51-13.64-19.5-20.65-28.45q-11.4,1.05-22.75,2.44c1.86,29.46,4.06,60.08,5.83,89.6,8.22-.25,16.26-.49,24.47-.44-.23-16.66-.36-33.57-.6-50.24q7,8.42,13.59,17.2,6.18-8.91,12.65-17.93c-.33,17.12-.65,34.48-1,51.6,7.46.31,14.83.92,22.28,1.49.9-32,2.1-65.08,2.81-96.91q-10.84.19-21.66.7C446.18,339.6,441,350.46,436.25,360.41Z"/><path d="M476.93,324.91l-14.48.09-14.24.44L438.3,331l-6.65,15.48c-5.9-8.12-13.87-18.87-13.87-18.87l-2.33.21c-7.62.71-15.21,1.84-22.77,2.77l-4,.49-6.13,9.35,3.12,54.36q3.38,14.49,6.54,29.14l-4.87.09.7,12.11,28.7-.85,10.89-7.63-.06-4.38-.14-9.57-.3-21.09,6.76,8.7,2.41-3.48h0l3.73-5.37.37-.53L439,435.52l26.52,1.74,8.8-7.37h0l.13-4.5c.89-31.8,1.7-64,2.4-95.71l.1-4.47Zm-6.84,100.77c-7.45-.57-14.82-1.18-22.28-1.49.33-17.12.65-34.48,1-51.6q-6.46,9-12.65,17.93-6.63-8.77-13.59-17.2c.24,16.67.37,33.58.6,50.24-8.21-.05-16.25.19-24.47.44-1.77-29.52-4-60.14-5.83-89.6Q404.21,333,415.6,332c7,9,14.11,18.94,20.65,28.45,4.7-10,9.93-20.81,15-30.94q10.81-.5,21.66-.7C472.19,360.6,471,393.72,470.09,425.68Z"/><path d="M351.3,383.81q7.26-.8,14.53-1.45-4.54-13-9.32-25.84Q353.79,370.26,351.3,383.81Zm9.48-4.57c-1,.1-5.13.15-5.13.15.06-.76,1.9-6.48,2.32-8.62C358.61,372.55,360.15,377.46,360.78,379.24Z"/><path d="M396.59,422.82c-6.53-30.23-13.87-60.35-21.82-89.53l-1-3.73-3.84.48c-10.21,1.29-20.6,3-30.81,4.72l-3.09.51-9.22,9.56-15.11,97.05,31.71-3.75,8.51-8.32.33-3.77c.64-7.07,1.31-14.22,2-21.34l6.39-.21,5,32.12,27.2-.51,4.55-9.55,0,.15Zm-23.1,1.56c-2.22-9.51-4.48-19.13-6.82-28.51q-8.09.61-16.17,1.41c-1,9.51-2,19.21-2.87,28.61-7.36.55-14.73,1.54-22.07,2.31,3.88-28.85,8.77-59,14.32-89.27q15.24-2.54,30.59-4.47c7.92,29.1,15.16,59,21.73,89.47Q382.84,424,373.49,424.38Z"/><path d="M274,372.06c-.67-.08-1.34-.14-2-.19a33.64,33.64,0,0,0-10.38.92l-1.12.29q2.1,10.71,4.19,21.42s0,.05.09.05a25.84,25.84,0,0,0,5-1.66,28.75,28.75,0,0,0,8.77-5.22,8.41,8.41,0,0,0,3-8.17C280.7,375.1,278.22,372.59,274,372.06Zm1.58,12.25a24.43,24.43,0,0,1-7.43,4.41h0L266,378.06c1.51-.13,9.34-.51,10.57,4.85,0,.06,0,.12,0,.18A5,5,0,0,1,275.53,384.31Z"/><path d="M322.6,425.5c-9.58-8.13-19.57-15.88-29.76-23.12,10.28-6.65,14.52-18.17,11.7-32.61-2.9-14.89-12.56-20.76-20.64-21.3-.45,0-.89,0-1.32,0-6.15,0-12.68,1.34-19.2,3-2.47.34-37.2,10.75-37.2,10.76h0l-5.31,9.67,18.66,83L271,447.81l7.12-8.68L277,434.48c-.69-2.8-1.39-5.59-2.09-8.39l17,18.22,25.92-3.24,12.71-8.82ZM294,432.37c-8.94-7.64-18.23-15.1-27.63-21.91,2.11,8.35,4.3,17,6.38,25.36-8.23,1.44-16.4,3.28-24.59,5-5.53-25.11-11.15-50.78-16.62-76q14.07-4.32,28.28-8.11l1.55-.47c.85-.27,1.93-.57,3.26-.92a73.13,73.13,0,0,1,18-2.46l1,0c5.8.39,14,4.5,16.55,17.69,4.93,25.3-15.25,30.61-16.09,31.09A438.6,438.6,0,0,1,320,429.2C311.35,430.12,302.58,431.13,294,432.37Z"/><path d="M245.74,440c-12.15-23.38-25-46.37-38.21-68.33l-1.37-2-19.95,7-15.83,6.16v.57l0-.59-6.31,9.77,2.46,85.46,32.88-11.76,4-9.06-.42-3.66c-.6-5.21-1.18-10.49-1.74-15.77l7.1-2.51,9.91,25.17L244,453.83l4.32-8.8Zm-22.13,7c-4-7.27-8-14.71-12.09-21.82q-7.78,2.44-15.53,5.08c.81,8,1.68,16.1,2.58,24-7.11,2.22-14.22,4.66-21.27,7.12-1.41-24.39-2.23-49.93-2.44-76.06q14.32-6,28.85-11.35c13.16,21.89,26.06,44.93,38.27,68.42C235.88,443.87,229.68,445.36,223.61,447Z"/><path d="M194.28,419.09q6.93-2.44,13.9-4.75-6.87-9.58-13.89-18.85Q194.2,407.42,194.28,419.09Zm8.41-7.14c-.77.26-5.08,1.86-5.08,1.86,0-1.32-.24-7.22-.24-8.55C198.14,406.32,202.69,412,202.69,412Z"/><path d="M172.39,459.88l-.81-1.83-6.89-15.57-3-6.69-4.94,5.4c0,.06-.48.49-2.28,2-1.31,1.1-3.11,2.43-5.36,4a47.75,47.75,0,0,1-6.68,3.77,21.49,21.49,0,0,1-8.46,2.27c-2.46,0-5.63-.63-8.32-5.86a52.8,52.8,0,0,1-3.61-8.57c5.67-9.73,23.69-10.59,23.69-10.59l6-8.4L149,413.45l-3.83-8.56-3.82-8.56-1.59-3.54-3.78.82c-.8.18-2.23.61-4.24,1.29s-4.65,1.66-7.44,2.8a84.38,84.38,0,0,0-8.75,4.17c-1.76,1-3.07,1.73-4,2.33a44.7,44.7,0,0,0-5.68,3.76h0l-.07.06a43.4,43.4,0,0,0-11.38,13.41c-6.76,10.86-12.19,27.55-2,47.35,22,42.57,78,7.79,78,7.79l3.41-13.36Zm-7.14,3.88c-1.47,1-3.47,2.18-6,3.59a89.08,89.08,0,0,1-8.07,3.95,57.39,57.39,0,0,1-22.43,5.09,48.73,48.73,0,0,1-7-.46c-9.39-1.34-16.88-8-22.31-20.61-5-11.48-5.77-21.11-2.16-28.9A39.16,39.16,0,0,1,114,408.29c.79-.52,2.07-1.27,3.82-2.24a79,79,0,0,1,8.26-3.93q4.23-1.72,7.16-2.7c2-.66,3.19-1,3.72-1.14l7.65,17.12c-.55,0-1.73.19-3.56.49a65.94,65.94,0,0,0-6.71,1.58,40.38,40.38,0,0,0-7.66,3,25,25,0,0,0-7.94,6.2,13.22,13.22,0,0,0-2.13,9.71c.54,3.54,2.15,7.89,4.81,13.09,3,5.71,7.14,8.49,12.61,8.45a26.06,26.06,0,0,0,10.42-2.72,51.05,51.05,0,0,0,7.37-4.15c2.35-1.6,4.27-3,5.74-4.25s2.38-2,2.74-2.44l7.7,17.4C167.64,462.12,166.72,462.77,165.25,463.76Z"/><path class="cls-1" d="M656.26,560.27c-3.13-4.82-6-9.8-8.72-14.89a168.69,168.69,0,0,1-7.36-15.7,126.75,126.75,0,0,1-9-33.77,93.18,93.18,0,0,1-.34-17.76,72.13,72.13,0,0,1,1.25-8.88,84.58,84.58,0,0,1,2.19-8.67,117.26,117.26,0,0,1,15.77-31.47c1.65-2.41,3.38-4.75,5.15-7.06s3.65-4.53,5.53-6.74q5.67-6.6,11.82-12.71T685.34,391c4.37-3.75,8.91-7.28,13.5-10.73a228.16,228.16,0,0,1,28.93-18.52,226.09,226.09,0,0,1-38.34.75,191.92,191.92,0,0,1-38.16-6.09,120.15,120.15,0,0,1-18.45-6.53,91.43,91.43,0,0,1-17.16-10,64.1,64.1,0,0,1-14.06-14.54,55.69,55.69,0,0,1-5-9l-.52-1.18-.48-1.28c-.34-.85-.57-1.72-.82-2.58a38.62,38.62,0,0,1-1-5.23,62.08,62.08,0,0,1,1.39-20.27A124.85,124.85,0,0,1,601,267c2.4-6,5.1-11.93,8-17.7,1.45-2.88,2.93-5.73,4.48-8.55s3.17-5.6,4.8-8.37c6.5-11.07,13.65-21.7,21.14-32.06s15.4-20.4,23.87-29.95c-4.51,3.84-9.42,7.16-14.29,10.53s-9.89,6.51-15,9.55-10.22,6-15.47,8.79-10.59,5.41-16,7.91-11,4.69-16.66,6.69a122.1,122.1,0,0,1-17.5,4.92,73.27,73.27,0,0,1-9.2,1.28,50.17,50.17,0,0,1-9.56-.11,31.46,31.46,0,0,1-9.71-2.62,31.86,31.86,0,0,1-8.32-5.63,45,45,0,0,1-10.49-16.09,86.12,86.12,0,0,1-4.76-17.81c-2-12-2.17-24-1.67-35.92.24-5.95.75-11.88,1.4-17.78s1.42-11.78,2.41-17.62,2-11.66,3.28-17.44,2.6-11.54,4.21-17.22c-8.17,14.41-17.15,28.36-26.53,42q-4.68,6.75-9.53,13.38l1.74-.36-40.95,80.94-58,12-36.28-72.41,2.16-.45,2.14-.44-.36-.94c-2.86-7.86-5.41-15.8-7.81-23.77s-4.62-16-6.63-24-4-16.13-5.73-24.23-3.39-16.24-5-24.38c-3-16.3-5.76-32.64-7.71-49.1a376.11,376.11,0,0,1,.29,45.3c-.43,7.55-1,15.1-1.87,22.64s-2,15-3.48,22.53a196.65,196.65,0,0,1-5.57,22.25,131.29,131.29,0,0,1-8.73,21.5A71.37,71.37,0,0,1,294,153.31a45.77,45.77,0,0,1-10.05,7.12,50.91,50.91,0,0,1-5.64,2.42l-2.88,1-2.92.79a73.7,73.7,0,0,1-23.73,1.49,109.43,109.43,0,0,1-22.83-4.71,201,201,0,0,1-41.71-19,337.8,337.8,0,0,1-37.49-25.73c-5.93-4.7-11.77-9.5-17.41-14.52S118.09,92,113,86.45c1.87,3.15,4,6.14,6.06,9.12s4.23,6,6.38,8.91q6.4,8.89,12.73,17.88T150.4,140.6q6,9.22,11.57,18.75c1.86,3.17,3.69,6.37,5.46,9.6s3.47,6.5,5.13,9.8c3.32,6.6,6.43,13.33,9.2,20.23a166.86,166.86,0,0,1,6.89,21.33,93.58,93.58,0,0,1,3,22.61,53.2,53.2,0,0,1-4.92,22.94,41.88,41.88,0,0,1-6.71,10,46.78,46.78,0,0,1-9.06,7.66,73.26,73.26,0,0,1-21.09,9.06,123.9,123.9,0,0,1-22.15,3.7c-14.83,1.29-29.62.6-44.24-.93-7.3-.84-14.57-1.84-21.79-3.16s-14.39-2.8-21.46-4.7c5.68,2,11.24,4.3,16.72,6.81s10.85,5.27,16.15,8.19A175.26,175.26,0,0,1,103,323.19a105.33,105.33,0,0,1,12.91,13.28,72.76,72.76,0,0,1,9.91,16.07A48.12,48.12,0,0,1,130,371.45a44.66,44.66,0,0,1-1,9.78,79.28,79.28,0,0,1-2.7,9.12,111.15,111.15,0,0,1-6.65,14.74c2.11-1.08,4.26-2.08,6.45-3q4.23-1.72,7.16-2.7c2-.66,3.19-1,3.72-1.14l7.65,17.12c-.55,0-1.73.19-3.56.49a65.94,65.94,0,0,0-6.71,1.58,40.38,40.38,0,0,0-7.66,3,25,25,0,0,0-7.94,6.2,13.22,13.22,0,0,0-2.13,9.71c.54,3.54,2.15,7.89,4.81,13.09,3,5.71,7.14,8.49,12.61,8.45a26.06,26.06,0,0,0,10.42-2.72,51.05,51.05,0,0,0,7.37-4.15c2.35-1.6,4.27-3,5.74-4.25s2.38-2,2.74-2.44l7.7,17.4c-.38.31-1.3,1-2.77,1.95s-3.47,2.18-6,3.59a89.08,89.08,0,0,1-8.07,3.95,57.39,57.39,0,0,1-22.43,5.09,48.73,48.73,0,0,1-7-.46c-9.39-1.34-16.88-8-22.31-20.61a49.08,49.08,0,0,1-4.32-16q-5,5.67-10.44,11c-4.32,4.25-8.74,8.38-13.31,12.35s-9.28,7.76-14.07,11.44-9.74,7.14-14.83,10.4c-2.55,1.61-5.13,3.18-7.78,4.64-1.33.71-2.68,1.4-4.06,2l-.88.38a107.47,107.47,0,0,1,11.61-3,125.21,125.21,0,0,1,14.83-2.14A118,118,0,0,1,71.2,486a116,116,0,0,1,15.07,1.47,102.15,102.15,0,0,1,29,9.3,97.25,97.25,0,0,1,24.94,17.84,103.86,103.86,0,0,1,10.15,11.54A109,109,0,0,1,158.8,539a104.32,104.32,0,0,1,10.68,28.67,130.11,130.11,0,0,1,2.88,30.09,138.52,138.52,0,0,1-1,15,105.34,105.34,0,0,1-2.75,14.69A326.73,326.73,0,0,1,192.49,596c4.31-5,8.69-9.91,13.25-14.69s9.27-9.42,14.11-13.93,9.89-8.82,15.07-13,11.16-6,16.77-9.6c1.25-.81,14.15-4.58,28.34-8.36a95.53,95.53,0,0,1,9.67-3.13,70.44,70.44,0,0,1,9.13-1.79l.92-.09C310,529,318,527.33,319.1,527.92a50.3,50.3,0,0,1,8.71,6,82.3,82.3,0,0,1,13.62,15.29,148.73,148.73,0,0,1,10.25,17.26,198.86,198.86,0,0,1,8.17,18.14c2.44,6.15,4.7,12.35,6.68,18.64s3.84,12.6,5.44,19S375,635,376.18,641.51a290.13,290.13,0,0,1,5.35-36c1.28-5.93,2.65-11.86,4.27-17.73s3.45-11.7,5.49-17.47a181,181,0,0,1,7.09-17,110.15,110.15,0,0,1,9.35-16.18,60.84,60.84,0,0,1,13.25-14c2.66-2,5.51-2.19,8.71-3.4s27-.26,30,1a61.72,61.72,0,0,1,15.68,9.34,105.24,105.24,0,0,1,13.33,13.11A160.56,160.56,0,0,1,499.76,558c3.42,5.08,6.52,10.36,9.42,15.73s5.63,10.8,8.09,16.35,4.84,11.14,6.93,16.83c.73,2,1.43,3.92,2.12,5.89a108.71,108.71,0,0,1-2.8-17.1,87.74,87.74,0,0,1,.15-14.85A62.47,62.47,0,0,1,527,566.08a49.19,49.19,0,0,1,7.44-13.55A46.05,46.05,0,0,1,546,542.08a53.31,53.31,0,0,1,8.37-4.29l-3.28-1,19.58-7,30,4-1,3.28.74.23.21-.51c1.77.52,2.58,1.36,4.32,2a150.58,150.58,0,0,1,26.64,12.64,219.34,219.34,0,0,1,24,16.62c3.78,3,7.52,6.13,11.1,9.4s7.1,6.58,10.4,10.12a166.93,166.93,0,0,1-11-13.15C662.65,569.81,659.38,565.1,656.26,560.27Z"/><path d="M83.45,295.31c14.62,1.53,29.41,2.22,44.24.93a123.9,123.9,0,0,0,22.15-3.7,73.26,73.26,0,0,0,21.09-9.06,46.78,46.78,0,0,0,9.06-7.66,41.88,41.88,0,0,0,6.71-10,53.2,53.2,0,0,0,4.92-22.94,93.58,93.58,0,0,0-3-22.61A166.86,166.86,0,0,0,181.76,199c-2.77-6.9-5.88-13.63-9.2-20.23q-2.49-5-5.13-9.8c-1.77-3.23-3.6-6.43-5.46-9.6q-5.61-9.51-11.57-18.75t-12.28-18.24q-6.33-9-12.73-17.88c-2.15-3-4.28-5.92-6.38-8.91s-4.19-6-6.06-9.12c3,6.7,6.87,13,10.56,19.27l11.27,18.8c3.77,6.24,7.49,12.52,11.1,18.84s7.21,12.64,10.6,19.06c1.7,3.2,3.35,6.43,5,9.67s3.24,6.47,4.78,9.74c3.07,6.54,5.92,13.17,8.43,19.9a163.14,163.14,0,0,1,6.39,20.4,91.17,91.17,0,0,1,2.62,20.76,45.46,45.46,0,0,1-4,19.62,37.66,37.66,0,0,1-12.94,14.8,66.33,66.33,0,0,1-18.82,8.6,134.78,134.78,0,0,1-20.91,4.27,262.65,262.65,0,0,1-43.31,1.33c-14.53-.6-29.06-2-43.54-4.06,7.07,1.9,14.25,3.39,21.46,4.7S76.15,294.47,83.45,295.31Z"/><path d="M129.31,102.1c5.64,5,11.48,9.82,17.41,14.52a337.8,337.8,0,0,0,37.49,25.73,201,201,0,0,0,41.71,19,109.43,109.43,0,0,0,22.83,4.71,73.7,73.7,0,0,0,23.73-1.49l2.92-.79,2.88-1a50.91,50.91,0,0,0,5.64-2.42A45.77,45.77,0,0,0,294,153.31a71.37,71.37,0,0,0,14.18-19.09,131.29,131.29,0,0,0,8.73-21.5,196.65,196.65,0,0,0,5.57-22.25c1.45-7.48,2.59-15,3.48-22.53s1.44-15.09,1.87-22.64A376.11,376.11,0,0,0,327.51,0c-.73,15.06-1.9,30.06-3.72,45q-1.29,11.17-3.17,22.24c-1.24,7.37-2.65,14.71-4.38,21.94s-3.7,14.4-6.09,21.38a129.57,129.57,0,0,1-8.73,20.1,63.78,63.78,0,0,1-12.74,16.92,37.24,37.24,0,0,1-8.37,5.83,49.57,49.57,0,0,1-4.74,2l-2.47.84-2.53.7a65.85,65.85,0,0,1-21.15,1.48A115.75,115.75,0,0,1,228,154.27a167.79,167.79,0,0,1-20.79-7.53c-6.79-3-13.5-6.17-20.07-9.69A413.09,413.09,0,0,1,149,113.57c-6.21-4.21-12.27-8.64-18.3-13.12q-4.53-3.37-9-6.87c-3-2.32-5.92-4.65-8.75-7.13C118.09,92,123.68,97.07,129.31,102.1Z"/><path d="M526,71.76c-9.59,13.5-19.4,26.8-29.57,39.81q-6.74,8.66-13.73,17.1h0l7.21-1.48q4.86-6.63,9.53-13.38C508.81,100.12,517.79,86.17,526,71.76Z"/><path d="M340.18,73.48c1.78,8.1,3.71,16.17,5.73,24.23s4.23,16.07,6.63,24,4.95,15.91,7.81,23.77l.36.94,7.59-1.56c-.26-.69-.54-1.37-.8-2.07-3-7.62-5.67-15.38-8.22-23.19S354.36,103.94,352,96s-4.51-15.85-6.65-23.82-4.24-16-6.23-24C335,32.23,331.26,16.13,327.51,0c1.95,16.46,4.71,32.8,7.71,49.1Q337.58,61.31,340.18,73.48Z"/><path d="M518.47,106.42c-1,5.84-1.75,11.72-2.41,17.62s-1.16,11.83-1.4,17.78c-.5,11.9-.34,23.93,1.67,35.92a86.12,86.12,0,0,0,4.76,17.81,45,45,0,0,0,10.49,16.09,31.86,31.86,0,0,0,8.32,5.63,31.46,31.46,0,0,0,9.71,2.62,50.17,50.17,0,0,0,9.56.11,73.27,73.27,0,0,0,9.2-1.28,122.1,122.1,0,0,0,17.5-4.92c5.67-2,11.21-4.26,16.66-6.69s10.75-5.14,16-7.91,10.38-5.76,15.47-8.79,10.06-6.27,15-9.55,9.78-6.69,14.29-10.53c-2.51,1.55-5.13,2.91-7.72,4.31s-5.2,2.77-7.82,4.11c-5.21,2.74-10.49,5.33-15.76,7.92s-10.6,5-15.92,7.46-10.71,4.7-16.14,6.82a177.57,177.57,0,0,1-33,10.11,57.91,57.91,0,0,1-16.4.93,24.6,24.6,0,0,1-7.3-1.92,23.63,23.63,0,0,1-6.27-4.21,37.38,37.38,0,0,1-8.8-13.22,80.32,80.32,0,0,1-4.78-16.17,153.57,153.57,0,0,1-2.22-17.11c-.47-5.77-.68-11.59-.7-17.42s.12-11.68.37-17.53.7-11.7,1.15-17.56q1.47-17.55,4-35.09c-1.61,5.68-3,11.44-4.21,17.22S519.44,100.58,518.47,106.42Z"/><path d="M633.69,342.45a82.45,82.45,0,0,1-13.4-8.6,58.55,58.55,0,0,1-12.17-13,48.76,48.76,0,0,1-4.22-7.74l-.45-1-.34-1a18.73,18.73,0,0,1-.61-2,30.76,30.76,0,0,1-.79-4.13,54.91,54.91,0,0,1,1.17-17.68c.61-3,1.37-6,2.24-8.92s1.89-5.89,2.93-8.83c4.23-11.73,9.8-23.06,15.63-34.25,2.93-5.59,6.06-11.09,9.21-16.59s6.42-10.94,9.75-16.34c6.62-10.84,13.57-21.49,20.64-32.11-8.47,9.55-16.31,19.64-23.87,29.95s-14.64,21-21.14,32.06q-2.44,4.16-4.8,8.37c-1.55,2.82-3,5.67-4.48,8.55-2.88,5.77-5.58,11.65-8,17.7a124.85,124.85,0,0,0-5.82,18.79A62.08,62.08,0,0,0,593.8,306a38.62,38.62,0,0,0,1,5.23c.25.86.48,1.73.82,2.58l.48,1.28.52,1.18a55.69,55.69,0,0,0,5,9,64.1,64.1,0,0,0,14.06,14.54,90.91,90.91,0,0,0,16.72,9.81Z"/><path d="M689.83,358.56c-6.26-.88-12.49-1.95-18.62-3.32a185.12,185.12,0,0,1-18.16-4.84c-.21-.06-.41-.14-.62-.21q-.76,3-1.52,6.07l.36.1a191.92,191.92,0,0,0,38.16,6.09,226.09,226.09,0,0,0,38.34-.75A325.82,325.82,0,0,1,689.83,358.56Z"/><path d="M698.84,380.22c-4.59,3.45-9.13,7-13.5,10.73s-8.63,7.64-12.77,11.67-8,8.31-11.82,12.71c-1.88,2.21-3.75,4.43-5.53,6.74s-3.5,4.65-5.15,7.06A117.26,117.26,0,0,0,634.3,460.6a84.58,84.58,0,0,0-2.19,8.67,72.13,72.13,0,0,0-1.25,8.88,93.18,93.18,0,0,0,.34,17.76,126.75,126.75,0,0,0,9,33.77,168.69,168.69,0,0,0,7.36,15.7c2.7,5.09,5.59,10.07,8.72,14.89s6.39,9.54,9.88,14.09a166.93,166.93,0,0,0,11,13.15,273.7,273.7,0,0,1-17.91-29c-2.65-5-5.18-10.06-7.5-15.2s-4.36-10.38-6.24-15.65a133.65,133.65,0,0,1-7.27-32.45,86,86,0,0,1,.15-16.37A75.5,75.5,0,0,1,641.8,463a121.28,121.28,0,0,1,14.72-29.47c1.53-2.32,3.14-4.59,4.79-6.84s3.34-4.47,5.08-6.67c3.48-4.38,7.17-8.61,11-12.74s7.71-8.21,11.76-12.15,8.15-7.84,12.39-11.6,8.5-7.51,12.9-11.12q3.27-2.75,6.61-5.4c2.22-1.79,4.47-3.54,6.74-5.28A228.16,228.16,0,0,0,698.84,380.22Z"/><path d="M534.42,552.53A49.19,49.19,0,0,0,527,566.08a62.47,62.47,0,0,0-3.31,14.76,87.74,87.74,0,0,0-.15,14.85,108.71,108.71,0,0,0,2.8,17.1c1.31,3.75,2.53,7.53,3.6,11.35q-.67-3.57-1.13-7.14c-.33-2.38-.58-4.77-.76-7.15a121.52,121.52,0,0,1-.39-14.26,85.16,85.16,0,0,1,1.47-14A62,62,0,0,1,533,568.47a42.05,42.05,0,0,1,17.05-19.84,52,52,0,0,1,12.27-5.24,51.49,51.49,0,0,1,6.07-1.35l-14-4.25a53.31,53.31,0,0,0-8.37,4.29A46.05,46.05,0,0,0,534.42,552.53Z"/><path d="M666.75,577.39c-3.58-3.27-7.32-6.35-11.1-9.4a219.34,219.34,0,0,0-24-16.62A150.58,150.58,0,0,0,605,538.73c-1.5-.52-3-1-4.53-1.46l-2.84,7h-.07c1.71.45,3.42.93,5.11,1.45a170.69,170.69,0,0,1,26.05,10.93A281,281,0,0,1,653.49,571q12.1,7.77,23.66,16.51C673.85,584,670.34,580.63,666.75,577.39Z"/><path d="M600.69,536.76l-.21.51c1.52.46,3,.94,4.53,1.46C603.27,538.12,602.46,537.28,600.69,536.76Z"/><path d="M524.2,606.9c-2.09-5.69-4.45-11.28-6.93-16.83s-5.21-11-8.09-16.35-6-10.65-9.42-15.73a160.56,160.56,0,0,0-11.06-14.78,105.24,105.24,0,0,0-13.33-13.11,61.72,61.72,0,0,0-15.68-9.34c-3-1.26-26.81-2.23-30-1s-6.05,1.43-8.71,3.4a60.84,60.84,0,0,0-13.25,14,110.15,110.15,0,0,0-9.35,16.18,181,181,0,0,0-7.09,17c-2,5.77-3.84,11.6-5.49,17.47s-3,11.8-4.27,17.73a290.13,290.13,0,0,0-5.35,36c.71-2.94,1.42-5.88,2.18-8.8s1.49-5.85,2.28-8.76c1.54-5.82,3.21-11.61,4.94-17.36s3.58-11.47,5.53-17.12,4-11.27,6.33-16.76,4.69-10.92,7.43-16.13a120.48,120.48,0,0,1,9.15-14.9,56.24,56.24,0,0,1,11.66-12.11,26.49,26.49,0,0,1,14.51-5.5c.64,0,1.29,0,1.94,0l2.05.13c1.36.14,2.72.32,4.07.59a43.57,43.57,0,0,1,8,2.39,61.39,61.39,0,0,1,14.7,8.56,101.14,101.14,0,0,1,12.81,11.89A151.92,151.92,0,0,1,495,561.33c1.77,2.39,3.46,4.83,5.13,7.31s3.32,5,4.9,7.5c3.18,5.06,6.15,10.27,9.06,15.52q8.64,15.81,15.84,32.48a91.25,91.25,0,0,1-3.6-11.35C525.63,610.82,524.93,608.85,524.2,606.9Z"/><path d="M529.92,624.14c-1.07-3.82-2.29-7.6-3.6-11.35A91.25,91.25,0,0,0,529.92,624.14Z"/><path d="M366.53,603.27c-2-6.29-4.24-12.49-6.68-18.64a198.86,198.86,0,0,0-8.17-18.14,148.73,148.73,0,0,0-10.25-17.26,82.3,82.3,0,0,0-13.62-15.29,50.3,50.3,0,0,0-8.71-6c-1.09-.59-9.15,1-19.35,3.47a26.26,26.26,0,0,1,7.67.27,36.09,36.09,0,0,1,15.79,7.81,77.78,77.78,0,0,1,12.84,13.68,143.09,143.09,0,0,1,10.5,16.1c1.6,2.81,3.11,5.67,4.59,8.55s2.92,5.79,4.29,8.74c2.77,5.88,5.28,11.89,7.74,17.94q7.26,18.18,13,37c-1.14-6.47-2.6-12.88-4.21-19.26S368.51,609.56,366.53,603.27Z"/><path d="M234.92,554.36c-5.18,4.17-10.24,8.46-15.07,13s-9.54,9.17-14.11,13.93S196.8,591,192.49,596a326.73,326.73,0,0,0-23.88,31.41c17.47-19.59,35.82-38.28,55.58-55.14,5-4.18,10-8.3,15.15-12.16s10.49-7.53,15.91-11A145.66,145.66,0,0,1,280,536.4c-14.19,3.78-27.09,7.55-28.34,8.36C246.08,548.4,240.11,550.21,234.92,554.36Z"/><path d="M289.7,533.27A95.53,95.53,0,0,0,280,536.4c6.64-1.77,13.57-3.54,19.72-5l-.92.09A70.44,70.44,0,0,0,289.7,533.27Z"/><path d="M114,408.29c.79-.52,2.07-1.27,3.82-2.24.6-.33,1.21-.65,1.81-1a111.15,111.15,0,0,0,6.65-14.74,79.28,79.28,0,0,0,2.7-9.12,44.66,44.66,0,0,0,1-9.78,48.12,48.12,0,0,0-4.16-18.91,72.76,72.76,0,0,0-9.91-16.07A105.33,105.33,0,0,0,103,323.19a175.26,175.26,0,0,0-29.94-20.74c-5.3-2.92-10.66-5.7-16.15-8.19s-11-4.85-16.72-6.81a320.6,320.6,0,0,1,30.89,18.23,201.14,201.14,0,0,1,27.81,22,115.66,115.66,0,0,1,11.59,13A65.78,65.78,0,0,1,119,355.4a42.93,42.93,0,0,1,3.21,16.07,40.74,40.74,0,0,1-.9,8.08,71.63,71.63,0,0,1-2.46,8.1c-3.85,10.53-9.54,20.51-16,30A39.13,39.13,0,0,1,114,408.29Z"/><path d="M30.59,491.13c1.38-.63,2.73-1.32,4.06-2,2.65-1.46,5.23-3,7.78-4.64,5.09-3.26,10-6.78,14.83-10.4s9.48-7.49,14.07-11.44,9-8.1,13.31-12.35q5.42-5.29,10.44-11a25.85,25.85,0,0,1,2.16-12.87,42.71,42.71,0,0,1,2.06-3.84c-2.43,3.35-5,6.64-7.59,9.87-3.74,4.58-7.65,9-11.63,13.43s-8.14,8.65-12.37,12.83-8.55,8.3-13,12.27-8.94,7.89-13.6,11.64c-2.32,1.87-4.68,3.7-7.12,5.43-1.21.87-2.43,1.72-3.7,2.52-.63.39-1.27.77-1.93,1.11a5.26,5.26,0,0,1-2.09.72,3,3,0,0,0,.95,0c.82-.3,1.66-.57,2.49-.84Z"/><path d="M172.36,597.71a130.11,130.11,0,0,0-2.88-30.09A104.32,104.32,0,0,0,158.8,539a109,109,0,0,0-8.44-12.81,103.86,103.86,0,0,0-10.15-11.54,97.25,97.25,0,0,0-24.94-17.84,102.15,102.15,0,0,0-29-9.3A116,116,0,0,0,71.2,486a118,118,0,0,0-15.05.38,125.21,125.21,0,0,0-14.83,2.14,107.47,107.47,0,0,0-11.61,3c-.4.17-.81.33-1.22.48s-.84.27-1.27.36l-.27.08a151.31,151.31,0,0,1,29.34-2.73c2.44,0,4.88.1,7.31.24s4.86.3,7.28.57a122.46,122.46,0,0,1,14.31,2.42A110.88,110.88,0,0,1,99,497a103.57,103.57,0,0,1,13,5.93,97.09,97.09,0,0,1,12,7.73,101.65,101.65,0,0,1,10.7,9.4A107.89,107.89,0,0,1,144,530.91a114.73,114.73,0,0,1,7.85,11.94,115.94,115.94,0,0,1,10.71,26.46c5,18.6,6.67,38.27,6,58.07a105.34,105.34,0,0,0,2.75-14.69A138.52,138.52,0,0,0,172.36,597.71Z"/><path d="M29.71,491.51c-.83.27-1.67.54-2.49.84.43-.09.86-.23,1.27-.36S29.31,491.68,29.71,491.51Z"/><path d="M102.8,417.6a39,39,0,0,0-3.5,5c1-1.42,2-2.84,3-4.27Z"/></g></g></svg>